Format : AVI
Format/Info : Audio Video Interleave
File size : 701 MiB
Duration : 1h 23mn
Overall bit rate : 1 172 Kbps
Writing library : VirtualDub build 32842/release

Video
ID : 0
Format : MPEG-4 Visual
Format profile : Advanced Simple@L5
Format settings, BVOP : 4
Format settings, QPel : No
Format settings, GMC : No warppoints
Format settings, Matrix : Default (H.263)
Muxing mode : Packed bitstream
Codec ID : XVID
Codec ID/Hint : XviD
Duration : 1h 23mn
Bit rate : 1 035 Kbps
Width : 640 pixels
Height : 272 pixels
Display aspect ratio : 2.35:1
Frame rate : 23.976 fps
Color space : YUV
Chroma subsampling : 4:2:0
Bit depth : 8 bits
Scan type : Progressive
Compression mode : Lossy
Bits/(Pixel*Frame) : 0.248
Stream size : 619 MiB (88%)
Writing library : XviD 64

Audio
ID : 1
Format : MPEG Audio
Format version : Version 1
Format profile : Layer 3
Codec ID : 55
Codec ID/Hint : MP3
Duration : 1h 23mn
Bit rate mode : Constant
Bit rate : 128 Kbps
Channel(s) : 2 channels
Sampling rate : 44.1 KHz
Compression mode : Lossy
Stream size : 76.5 MiB (11%)
Alignment : Split accross interleaves
Interleave, duration : 42 ms (1.00 video frame)
Interleave, preload duration : 500 ms
Writing library : LAME3.99r
Encoding settings : -m s -V 4 -q 3 -lowpass 17 -b 128


Plot
From the explosive star and producer of The Rise And Fall Of A White Collar Hooligan comes a powerful tale of justice and vengeance. Damien (Nick Nevern) is a London copper with a past heâ™s trying to forget.


 
http://www.shotpix.com/images/34746807324561755448.png 
http://www.shotpix.com/images/48152122348304282369.png 
http://www.shotpix.com/images/79240640332589661979.png